<?xml version="1.0" encoding="UTF-8" standalone="no"?>

<svg xmlns="http://www.w3.org/2000/svg"
    width="9" 
    height="15" 
    viewBox="0 0 9 15" >

    <path 
        fill="#ffffff"
        d="M8.7555,7.6852L6.9392,6.6464C6.8227,6.5798 6.6819,6.4025 6.644,6.2746L6.0814,4.3775C6.0674,4.33 6.0462,4.2876 6.0202,4.2504C5.9384,4.1013 5.7807,4 5.598,4L3.1964,4.1027C3.0912,4.1072 2.9933,4.1467 2.9131,4.2121C2.897,4.2219 2.8803,4.2312 2.8659,4.2422L1.234,5.4896C1.0455,5.6337 0.9399,5.9268 0.9939,6.1566L1.6401,8.9119C1.6939,9.1419 1.916,9.3155 2.1562,9.3155C2.1725,9.3155 2.1889,9.3147 2.2051,9.3131L2.4463,9.2892C2.5755,9.2763 2.6922,9.2113 2.7661,9.1107C2.8402,9.01 2.867,8.8801 2.8398,8.7542L2.3804,6.6273C2.3563,6.5156 2.4174,6.3504 2.5087,6.2808L2.7993,6.059L2.9488,9.4743C2.949,9.4779 2.9501,9.4813 2.9504,9.485L2.2871,10.9432C2.2035,11.1268 1.9936,11.3812 1.8288,11.4989L0.2735,12.6086C0.023,12.7873 -0.0716,13.1447 0.0579,13.4225L0.2707,13.8781C0.3555,14.0599 0.5257,14.1728 0.715,14.1728C0.8233,14.1728 0.9298,14.1363 1.023,14.0677L3.0764,12.5522C3.281,12.4013 3.5332,12.1074 3.6507,11.883L4.6758,9.9263C4.684,9.9105 4.6891,9.8936 4.6959,9.8772L4.7674,9.8742L6.4452,14.4588C6.5636,14.7824 6.8795,15 7.2313,15C7.3149,15 7.3975,14.9874 7.4769,14.9624L7.5803,14.9298C7.7854,14.8653 7.9501,14.7256 8.0443,14.5364C8.1383,14.3472 8.1497,14.1325 8.0764,13.9321L6.3096,9.1046C6.3014,9.0823 6.2901,9.0619 6.2803,9.0408L6.2236,7.7453L8.1715,8.7482C8.24,8.7835 8.3171,8.8022 8.3947,8.8022C8.575,8.8022 8.7401,8.7055 8.8254,8.5499L8.9413,8.3384C9.0672,8.1089 8.9838,7.8158 8.7555,7.6852Z" />
    
    <path d="M4.4992,3C4.521,3 4.543,2.9996 4.565,2.9986C4.9652,2.9813 5.3348,2.809 5.6056,2.5137C5.8763,2.2185 6.0159,1.8353 5.9986,1.4352C5.9629,0.6087 5.2721,-0.0344 4.435,0.0014C4.0348,0.0187 3.6652,0.1911 3.3944,0.4863C3.1237,0.7817 2.9841,1.1647 3.0014,1.5649C3.0363,2.3696 3.6943,3 4.4992,3Z" fill="#ffffff"/>
</svg>
